<svg xmlns="http://www.w3.org/2000/svg" width="360" height="200" viewBox="0 0 360 200" fill="none" aria-hidden="true">
  <defs>
    <linearGradient id="bg" x1="0" y1="0" x2="360" y2="200" gradientUnits="userSpaceOnUse">
      <stop stop-color="#FFE8E0"/>
      <stop offset="0.45" stop-color="#FFF4E0"/>
      <stop offset="1" stop-color="#E0F7EF"/>
    </linearGradient>
    <linearGradient id="card" x1="80" y1="60" x2="280" y2="150" gradientUnits="userSpaceOnUse">
      <stop stop-color="#FF6B6B" stop-opacity="0.2"/>
      <stop offset="1" stop-color="#26C485" stop-opacity="0.25"/>
    </linearGradient>
  </defs>
  <rect width="360" height="200" rx="24" fill="url(#bg)"/>
  <circle cx="300" cy="36" r="40" fill="#FF6B6B" opacity="0.15"/>
  <circle cx="48" cy="160" r="52" fill="#26C485" opacity="0.12"/>
  <rect x="56" y="52" width="248" height="96" rx="18" fill="#fff" fill-opacity="0.85" stroke="#FF9F43" stroke-width="2" stroke-opacity="0.4"/>
  <rect x="72" y="68" width="56" height="40" rx="8" fill="#FF6B6B" opacity="0.85"/>
  <text x="100" y="94" text-anchor="middle" fill="#fff" font-family="system-ui,sans-serif" font-size="22" font-weight="800">₹</text>
  <rect x="140" y="74" width="140" height="10" rx="5" fill="#2D3142" opacity="0.12"/>
  <rect x="140" y="92" width="100" height="10" rx="5" fill="#2D3142" opacity="0.08"/>
  <ellipse cx="120" cy="168" rx="22" ry="10" fill="#2D3142" opacity="0.06"/>
  <circle cx="120" cy="138" r="18" fill="#FF9F43" opacity="0.35"/>
  <path d="M108 132c8-12 24-12 32 0" stroke="#2D3142" stroke-width="2" stroke-linecap="round" opacity="0.25"/>
  <circle cx="248" cy="130" r="16" fill="#26C485" opacity="0.4"/>
  <circle cx="268" cy="122" r="10" fill="#FF6B6B" opacity="0.35"/>
  <text x="180" y="36" text-anchor="middle" fill="#2D3142" font-family="system-ui,sans-serif" font-size="12" font-weight="700" letter-spacing="0.12em" opacity="0.55">YOUR CAMPUS MONEY HUB</text>
</svg>
